<svg t="1732873132654" class="icon" viewBox="0 0 1024 1024" version="1.1" xmlns="http://www.w3.org/2000/svg" p-id="31520" width="200" height="200"><path d="M1024 512q0 12.561067-0.6144 25.122133t-1.8432 25.053867q-1.2288 12.526933-3.072 24.951467t-4.3008 24.746666q-2.4576 12.356267-5.5296 24.541867-3.037867 12.1856-6.690133 24.234667-3.652267 12.014933-7.850667 23.825066-4.266667 11.844267-9.079467 23.4496-4.778667 11.605333-10.171733 22.971734-5.393067 11.3664-11.298133 22.459733-5.9392 11.093333-12.3904 21.845333-6.485333 10.786133-13.448534 21.265067-6.997333 10.4448-14.472533 20.548267-7.509333 10.069333-15.4624 19.797333t-16.384 19.012267q-8.465067 9.3184-17.339733 18.2272-8.874667 8.874667-18.2272 17.3056-9.3184 8.465067-19.012267 16.418133-9.728 7.9872-19.797333 15.4624-10.103467 7.509333-20.548267 14.472533-10.478933 6.997333-21.230933 13.448534-10.786133 6.485333-21.879467 12.3904t-22.459733 11.264q-11.3664 5.393067-22.971734 10.24-11.605333 4.778667-23.4496 9.0112-11.810133 4.232533-23.8592 7.8848-12.014933 3.652267-24.234666 6.724266-12.151467 3.037867-24.507734 5.461334-12.288 2.491733-24.746666 4.334933-12.424533 1.8432-24.917334 3.072-12.526933 1.2288-25.088 1.8432Q524.561067 1024 512 1024t-25.122133-0.6144q-12.561067-0.6144-25.053867-1.8432-12.526933-1.2288-24.951467-3.072t-24.746666-4.3008q-12.322133-2.4576-24.541867-5.5296-12.1856-3.037867-24.234667-6.690133-12.014933-3.652267-23.825066-7.850667-11.844267-4.266667-23.4496-9.079467-11.605333-4.778667-22.971734-10.171733-11.3664-5.393067-22.459733-11.298133-11.093333-5.9392-21.845333-12.3904-10.786133-6.485333-21.265067-13.448534-10.4448-6.997333-20.514133-14.472533-10.103467-7.509333-19.797334-15.4624-9.762133-7.953067-19.0464-16.384-9.3184-8.465067-18.2272-17.339733-8.874667-8.874667-17.3056-18.2272-8.465067-9.3184-16.418133-19.012267-7.9872-9.728-15.4624-19.797333-7.509333-10.103467-14.472533-20.548267-6.997333-10.478933-13.448534-21.230933-6.485333-10.786133-12.3904-21.879467t-11.264-22.459733q-5.393067-11.3664-10.24-22.971734-4.778667-11.605333-9.0112-23.4496-4.232533-11.810133-7.8848-23.8592-3.652267-12.014933-6.690133-24.234666-3.072-12.151467-5.5296-24.507734-2.4576-12.288-4.3008-24.746666-1.8432-12.424533-3.072-24.917334-1.2288-12.526933-1.8432-25.088Q0 524.561067 0 512t0.6144-25.122133q0.6144-12.561067 1.8432-25.053867 1.2288-12.526933 3.072-24.951467t4.3008-24.746666q2.4576-12.322133 5.5296-24.541867 3.037867-12.1856 6.690133-24.234667 3.652267-12.014933 7.850667-23.825066 4.266667-11.844267 9.079467-23.4496 4.778667-11.605333 10.171733-22.971734 5.393067-11.3664 11.298133-22.459733 5.9392-11.093333 12.3904-21.845333 6.485333-10.786133 13.448534-21.265067 6.997333-10.4448 14.472533-20.514133 7.509333-10.103467 15.4624-19.797334 7.953067-9.762133 16.384-19.0464 8.465067-9.3184 17.339733-18.2272 8.874667-8.874667 18.2272-17.3056 9.284267-8.465067 19.012267-16.418133 9.728-7.9872 19.797333-15.4624 10.103467-7.509333 20.548267-14.472533 10.478933-6.997333 21.230933-13.448534 10.786133-6.485333 21.879467-12.3904t22.459733-11.264q11.3664-5.393067 22.971734-10.24 11.605333-4.778667 23.4496-9.0112 11.810133-4.232533 23.8592-7.8848 12.014933-3.652267 24.234666-6.690133 12.1856-3.072 24.507734-5.5296 12.288-2.4576 24.746666-4.3008 12.424533-1.8432 24.917334-3.072 12.526933-1.2288 25.088-1.8432Q499.438933 0 512 0t25.122133 0.6144q12.561067 0.6144 25.053867 1.8432 12.526933 1.2288 24.951467 3.072t24.746666 4.3008q12.356267 2.4576 24.541867 5.5296 12.1856 3.037867 24.234667 6.690133 12.014933 3.652267 23.825066 7.850667 11.844267 4.266667 23.4496 9.079467 11.605333 4.778667 22.971734 10.171733 11.3664 5.393067 22.459733 11.298133 11.093333 5.9392 21.845333 12.3904 10.786133 6.485333 21.265067 13.448534 10.4448 6.997333 20.548267 14.472533 10.069333 7.509333 19.797333 15.4624t19.012267 16.384q9.3184 8.465067 18.2272 17.339733 8.874667 8.874667 17.3056 18.2272 8.465067 9.284267 16.418133 19.012267 7.9872 9.728 15.4624 19.797333 7.509333 10.103467 14.472533 20.548267 6.997333 10.478933 13.448534 21.230933 6.485333 10.786133 12.3904 21.879467t11.264 22.459733q5.393067 11.3664 10.24 22.971734 4.778667 11.605333 9.0112 23.4496 4.232533 11.810133 7.8848 23.8592 3.652267 12.014933 6.724266 24.234666 3.037867 12.1856 5.461334 24.507734 2.491733 12.288 4.334933 24.746666 1.8432 12.424533 3.072 24.917334 1.2288 12.526933 1.8432 25.088 0.6144 12.561067 0.6144 25.122133z" fill="#F3F6FF" p-id="31521"></path><path d="M238.933333 715.229867C238.933333 753.800533 269.482667 785.066667 307.2 785.066667h136.533333v-174.592c0-38.570667 30.549333-69.802667 68.266667-69.802667s68.266667 31.266133 68.266667 69.802667V785.066667h136.533333c37.717333 0 68.266667-31.266133 68.266667-69.8368v-275.524267c0-24.098133-12.117333-46.455467-32.085334-59.221333l-204.8-130.935467a66.9696 66.9696 0 0 0-72.362666 0l-204.8 130.935467A70.212267 70.212267 0 0 0 238.933333 439.7056v275.524267z" fill="#247EFF" p-id="31522"></path><path d="M392.533333 597.333333a119.466667 119.466667 0 0 1 238.933334 0V785.066667h-238.933334z" fill="#FFFFFF" p-id="31523"></path><path d="M443.733333 597.333333a68.266667 68.266667 0 0 1 136.533334 0V785.066667h-136.533334z" fill="#B8D5FF" p-id="31524"></path><path d="M443.733333 614.4a68.266667 68.266667 0 1 1 136.533334 0v170.666667h-136.533334v-170.666667z" fill="#B8D5FF" p-id="31525"></path></svg>
