<svg t="1733103763744" class="icon" viewBox="0 0 1024 1024" version="1.1" xmlns="http://www.w3.org/2000/svg" p-id="36309" width="200" height="200"><path d="M836.625965 926.809825a61.44 61.44 0 0 1-61.44-61.44 53.894737 53.894737 0 0 1 0.898246-10.778948l-83.357193-76.889824V682.666667h-68.266667v86.950175a61.44 61.44 0 1 1-66.290526 0V682.666667h-64.314386v35.929824a61.619649 61.619649 0 1 1-65.931228-1.077895V682.666667h-66.290527v94.854737l-45.451228 42.037894a58.026667 58.026667 0 0 1 1.077895 10.958597 61.619649 61.619649 0 1 1-61.619649-61.44 59.823158 59.823158 0 0 1 15.809123 2.335438l23.893333-22.276491v-69.70386a188.990877 188.990877 0 0 1-10.419649-369.178947 255.461053 255.461053 0 0 1 477.14807 0 189.170526 189.170526 0 0 1-4.670877 368.280702v70.602105l62.158596 56.948772a60.541754 60.541754 0 0 1 16.168421-2.155789 61.44 61.44 0 1 1 0 122.88z m-125.754386-157.013334l85.333333 78.865965-1.437193 5.389474a48.864561 48.864561 0 0 0-1.437193 11.317895 43.475088 43.475088 0 0 0 86.950176 0 44.014035 44.014035 0 0 0-44.373334-43.475088 40.780351 40.780351 0 0 0-14.910877 2.694737l-5.389473 1.796491-76.171229-69.70386v-93.417544l7.545264-1.257543a171.205614 171.205614 0 0 0 6.467368-335.764211l-4.850526-1.077895-1.616842-4.670877a237.49614 237.49614 0 0 0-446.787369 0l-1.616842 4.670877-4.850526 1.077895A171.205614 171.205614 0 0 0 305.403509 663.084912l7.545263 1.077895v92.878597l-37.367018 34.67228-5.030175-1.796491a49.762807 49.762807 0 0 0-15.270175-2.874386 43.834386 43.834386 0 1 0 41.858245 31.438597l-1.257544-5.209825 47.427369-43.475088V664.701754h102.220351v62.877193l-5.030176 2.515088a42.756491 42.756491 0 0 0-24.432281 38.98386 43.475088 43.475088 0 1 0 63.955088-38.624562l-4.491228-2.515087V664.701754h100.244211v115.514386l-4.670878 2.515088a43.475088 43.475088 0 1 0 39.882106 0l-4.850527-2.515088V664.701754h104.196492z m5.928421-134.916491H330.015439a141.204211 141.204211 0 0 1-17.964913-281.150877l9.521404-1.077895 2.515088-9.341754a207.674386 207.674386 0 0 1 398.821052 0l2.694737 9.341754 9.341754 1.077895a141.204211 141.204211 0 0 1-17.964912 281.150877zM523.497544 211.806316A190.607719 190.607719 0 0 0 341.333333 348.339649l-5.748772 20.659649-21.198596 2.515088a123.239298 123.239298 0 0 0 15.629474 245.400702h386.604912a123.239298 123.239298 0 0 0 16.168421-245.400702l-21.198597-2.515088-5.928421-20.659649a190.607719 190.607719 0 0 0-182.16421-136.533333z" fill="#94a9c1" p-id="36310"></path><path d="M646.736842 557.990175H387.862456a9.162105 9.162105 0 0 1-8.982456-8.982456 8.982456 8.982456 0 0 1 8.982456-8.982456H646.736842a8.982456 8.982456 0 0 1 8.982456 8.982456 8.982456 8.982456 0 0 1-8.982456 8.982456zM646.736842 490.621754h-129.706667a8.982456 8.982456 0 0 1-8.982456-8.982456 9.162105 9.162105 0 0 1 8.982456-8.982456H646.736842a8.982456 8.982456 0 0 1 8.982456 8.982456 8.982456 8.982456 0 0 1-8.982456 8.982456zM646.736842 423.432982h-129.706667a9.162105 9.162105 0 0 1-8.982456-8.982456 8.982456 8.982456 0 0 1 8.982456-8.982456H646.736842a8.982456 8.982456 0 0 1 8.982456 8.982456 8.982456 8.982456 0 0 1-8.982456 8.982456z" fill="#94a9c1" p-id="36311"></path><path d="M387.862456 410.857544m26.408421 0l32.87579 0q26.408421 0 26.408421 26.408421l0 32.875789q0 26.408421-26.408421 26.408421l-32.87579 0q-26.408421 0-26.408421-26.408421l0-32.875789q0-26.408421 26.408421-26.408421Z" fill="#94a9c1" p-id="36312"></path></svg>
