<svg t="1733120728458" class="icon" viewBox="0 0 1024 1024" version="1.1" xmlns="http://www.w3.org/2000/svg" p-id="2459" width="200" height="200"><path d="M654 176h106a88 88 0 0 1 88 88v106a32 32 0 0 0 32 32 32 32 0 0 0 32-32V264a152 152 0 0 0-152-152H654a32 32 0 0 0-32 32 32 32 0 0 0 32 32zM176 370V264a88 88 0 0 1 88-88h106a32 32 0 0 0 32-32 32 32 0 0 0-32-32H264a152 152 0 0 0-152 152v106a32 32 0 0 0 32 32 32 32 0 0 0 32-32zM370 848H264a88 88 0 0 1-88-88V654a32 32 0 0 0-32-32 32 32 0 0 0-32 32v106a152 152 0 0 0 152 152h106a32 32 0 0 0 32-32 32 32 0 0 0-32-32zM848 654v106a88 88 0 0 1-88 88H654a32 32 0 0 0-32 32 32 32 0 0 0 32 32h106a152 152 0 0 0 152-152V654a32 32 0 0 0-32-32 32 32 0 0 0-32 32zM469.25 570.62a28 28 0 0 1 0-56A20.78 20.78 0 0 0 490 493.86V382.14a28 28 0 0 1 56 0v111.72a76.85 76.85 0 0 1-76.75 76.76zM512 707.86a195.48 195.48 0 0 1-123.91-44.38l-2.88-2.37a28 28 0 0 1 35.54-43.27l2.89 2.37a138.93 138.93 0 0 0 179.05-2 28 28 0 1 1 36.5 42.47 195.48 195.48 0 0 1-125.05 47.14zM342.1 450.14a28 28 0 0 1-28-28v-40a28 28 0 0 1 56 0v40a28 28 0 0 1-28 28zM681.9 450.14a28 28 0 0 1-28-28v-40a28 28 0 0 1 56 0v40a28 28 0 0 1-28 28z" fill="#151717" p-id="2460"></path><path d="M654 176h106a88 88 0 0 1 88 88v106a32 32 0 0 0 32 32 32 32 0 0 0 32-32V264a152 152 0 0 0-152-152H654a32 32 0 0 0-32 32 32 32 0 0 0 32 32zM176 370V264a88 88 0 0 1 88-88h106a32 32 0 0 0 32-32 32 32 0 0 0-32-32H264a152 152 0 0 0-152 152v106a32 32 0 0 0 32 32 32 32 0 0 0 32-32zM370 848H264a88 88 0 0 1-88-88V654a32 32 0 0 0-32-32 32 32 0 0 0-32 32v106a152 152 0 0 0 152 152h106a32 32 0 0 0 32-32 32 32 0 0 0-32-32zM848 654v106a88 88 0 0 1-88 88H654a32 32 0 0 0-32 32 32 32 0 0 0 32 32h106a152 152 0 0 0 152-152V654a32 32 0 0 0-32-32 32 32 0 0 0-32 32zM469.25 570.62a28 28 0 0 1 0-56A20.78 20.78 0 0 0 490 493.86V382.14a28 28 0 0 1 56 0v111.72a76.85 76.85 0 0 1-76.75 76.76zM512 707.86a195.48 195.48 0 0 1-123.91-44.38l-2.88-2.37a28 28 0 0 1 35.54-43.27l2.89 2.37a138.93 138.93 0 0 0 179.05-2 28 28 0 1 1 36.5 42.47 195.48 195.48 0 0 1-125.05 47.14zM342.1 450.14a28 28 0 0 1-28-28v-40a28 28 0 0 1 56 0v40a28 28 0 0 1-28 28zM681.9 450.14a28 28 0 0 1-28-28v-40a28 28 0 0 1 56 0v40a28 28 0 0 1-28 28z" fill="#151717" p-id="2461"></path></svg>
