<svg t="1733120869888" class="icon" viewBox="0 0 1024 1024" version="1.1" xmlns="http://www.w3.org/2000/svg" p-id="5260" width="200" height="200"><path d="M963.128889 387.868444v-188.871111a40.96 40.96 0 0 0-40.391111-40.96h-50.631111l-36.408889-3.982222a525.596444 525.596444 0 0 1-110.364445-29.013333 788.252444 788.252444 0 0 1-102.968889-50.062222c-10.808889-5.688889-20.48-11.377778-28.444444-16.497778-7.964444-5.12-5.12-3.413333-6.826667-5.12l-2.275555-1.706667-23.324445-15.928889a40.96 40.96 0 0 0-46.648889 0l-22.755555 16.497778c-3.413333 0-19.342222 12.515556-37.546667 22.755556a788.48 788.48 0 0 1-102.968889 49.493333 525.653333 525.653333 0 0 1-110.364444 29.013333l-36.408889 3.982222h-51.2a40.96 40.96 0 0 0-39.822222 41.528889v377.173334c0 196.266667 251.448889 429.511111 424.391111 429.511111s424.96-233.244444 424.96-429.511111v-188.302223z m-81.351111 170.666667v15.36c0 149.617778-213.333333 348.16-341.333334 348.16s-341.333333-198.542222-341.333333-348.16v-334.506667c19.057778-0.568889 38.115556-2.503111 56.888889-5.688888a568.888889 568.888889 0 0 0 125.724444-34.702223 910.222222 910.222222 0 0 0 157.013334-84.195555c49.038222 33.564444 101.489778 61.724444 156.444444 84.195555 41.415111 16.099556 84.593778 27.306667 128.568889 33.564445a409.6 409.6 0 0 0 56.888889 5.688889v321.422222l1.137778-1.137778z" fill="#151717" p-id="5261"></path><path d="M689.493333 454.997333h-52.906666v-64.284444a96.142222 96.142222 0 1 0-192.284445 0v64.284444h-52.906666a43.235556 43.235556 0 0 0-43.235556 42.666667v191.715556a42.666667 42.666667 0 0 0 43.235556 42.666666h298.097777a42.609778 42.609778 0 0 0 43.235556-42.666666v-191.715556a43.235556 43.235556 0 0 0-43.235556-42.666667z m-180.906666-64.284444a31.857778 31.857778 0 0 1 63.715555 0v64.284444H508.586667v-64.284444z m138.808889 256H433.493333v-106.382222h213.902223v106.382222z" fill="#151717" p-id="5262"></path></svg>
